<svg version="1.1" preserveAspectRatio="none" xmlns="http://www.w3.org/2000/svg" width="500" height="500" viewBox="0 0 500 500"><rect width="100%" height="100%" fill="#000000" fill-opacity="1"/><svg viewBox="9.7034 172 381.8401 60" width="333" height="52.325567691816545" x="83.5px" y="223.8372px" xmlns="http://www.w3.org/2000/svg" xmlns:xlink="http://www.w3.org/1999/xlink" preserveAspectRatio="none"><defs></defs><style>.background-str {stroke:#000000;stroke-opacity:0.93;}.companyName {fill:#FFFFFF;fill-opacity:1;}.companyName-floo {flood-color:#FFFFFF;flood-opacity:1;}.icon3-str {stroke:#676767;stroke-opacity:1;}.text {fill:#FFFFFF;fill-opacity:1;}</style><defs>
      <filter
        x="9.7034"
        y="172"
        width="381.8401"
        height="33.2469"
        id="Q-iYOAdpak"
        filterUnits="userSpaceOnUse"
        primitiveUnits="userSpaceOnUse"
        color-interpolation-filters="sRGB">
        
    <feGaussianBlur in="SourceGraphic" stdDeviation="0"/>
    <feOffset dx="1.246900283825677" dy="1.246900283825677" result="cOpkFHqxSy"/>
    <feFlood flood-color="#FFFFFF" flood-opacity="1" in="cOpkFHqxSy" />
    <feComposite  in2="cOpkFHqxSy" operator="in" result="hDuYXTTvk1"/><feMerge result="IlhoOc0aX-q"><feMergeNode in="hDuYXTTvk1" /><feMergeNode in="SourceGraphic" /></feMerge>
      </filter></defs><g opacity="1" transform="rotate(0 88.1199 218)">
<svg width="223.7602" height="14" x="88.1199" y="218" version="1.1" preserveAspectRatio="none" viewBox="4.2 -30.28 611.7199999999999 38.28">
  <g transform="matrix(1 0 0 1 0 0)" class="text"><path id="id-6izo4zJp24" d="M4.20 0L4.20-28L8.20-28L8.20 0L4.20 0Z M31.36-21.40Q35.40-21.40 37.78-19.06Q40.16-16.72 40.16-12.20L40.16-12.20L40.16 0L36.32 0L36.32-11.76Q36.32-14.84 34.84-16.40Q33.36-17.96 30.60-17.96L30.60-17.96Q27.48-17.96 25.68-16.14Q23.88-14.32 23.88-10.92L23.88-10.92L23.88 0L20.04 0L20.04-21.20L23.72-21.20L23.72-18Q24.88-19.64 26.86-20.52Q28.84-21.40 31.36-21.40L31.36-21.40Z M62.60-21.40Q66.64-21.40 69.02-19.06Q71.40-16.72 71.40-12.20L71.40-12.20L71.40 0L67.56 0L67.56-11.76Q67.56-14.84 66.08-16.40Q64.60-17.96 61.84-17.96L61.84-17.96Q58.72-17.96 56.92-16.14Q55.12-14.32 55.12-10.92L55.12-10.92L55.12 0L51.28 0L51.28-21.20L54.96-21.20L54.96-18Q56.12-19.64 58.10-20.52Q60.08-21.40 62.60-21.40L62.60-21.40Z M91.72 0.24Q88.56 0.24 86.04-1.16Q83.52-2.56 82.10-5.02Q80.68-7.48 80.68-10.60L80.68-10.60Q80.68-13.72 82.10-16.18Q83.52-18.64 86.04-20.02Q88.56-21.40 91.72-21.40L91.72-21.40Q94.88-21.40 97.38-20.02Q99.88-18.64 101.30-16.18Q102.72-13.72 102.72-10.60L102.72-10.60Q102.72-7.48 101.30-5.02Q99.88-2.56 97.38-1.16Q94.88 0.24 91.72 0.24L91.72 0.24ZM91.72-3.12Q93.76-3.12 95.38-4.06Q97-5 97.92-6.70Q98.84-8.40 98.84-10.60L98.84-10.60Q98.84-12.80 97.92-14.50Q97-16.20 95.38-17.12Q93.76-18.04 91.72-18.04L91.72-18.04Q89.68-18.04 88.06-17.12Q86.44-16.20 85.50-14.50Q84.56-12.80 84.56-10.60L84.56-10.60Q84.56-8.40 85.50-6.70Q86.44-5 88.06-4.06Q89.68-3.12 91.72-3.12L91.72-3.12Z M126.44-21.20L130.20-21.20L120.92 0L117.00 0L107.72-21.20L111.72-21.20L119.00-4.20L126.44-21.20Z M144.84-21.40Q149.24-21.40 151.58-19.24Q153.92-17.08 153.92-12.80L153.92-12.80L153.92 0L150.28 0L150.28-2.80Q149.32-1.32 147.54-0.54Q145.76 0.24 143.32 0.24L143.32 0.24Q139.76 0.24 137.62-1.48Q135.48-3.20 135.48-6L135.48-6Q135.48-8.80 137.52-10.50Q139.56-12.20 144.00-12.20L144.00-12.20L150.08-12.20L150.08-12.96Q150.08-15.44 148.64-16.76Q147.20-18.08 144.40-18.08L144.40-18.08Q142.52-18.08 140.72-17.46Q138.92-16.84 137.68-15.80L137.68-15.80L136.08-18.68Q137.72-20 140.00-20.70Q142.28-21.40 144.84-21.40L144.84-21.40ZM143.96-2.72Q146.16-2.72 147.76-3.70Q149.36-4.68 150.08-6.48L150.08-6.48L150.08-9.44L144.16-9.44Q139.28-9.44 139.28-6.16L139.28-6.16Q139.28-4.56 140.52-3.64Q141.76-2.72 143.96-2.72L143.96-2.72Z M175.76-4L176.96-1.24Q176.12-0.52 174.88-0.14Q173.64 0.24 172.32 0.24L172.32 0.24Q169.12 0.24 167.36-1.48Q165.60-3.20 165.60-6.40L165.60-6.40L165.60-18.04L162.00-18.04L162.00-21.20L165.60-21.20L165.60-25.84L169.44-25.84L169.44-21.20L175.52-21.20L175.52-18.04L169.44-18.04L169.44-6.56Q169.44-4.84 170.30-3.92Q171.16-3 172.76-3L172.76-3Q174.52-3 175.76-4L175.76-4Z M185.60 0L185.60-21.20L189.44-21.20L189.44 0L185.60 0ZM187.52-25.28Q186.40-25.28 185.66-26Q184.92-26.72 184.92-27.76L184.92-27.76Q184.92-28.80 185.66-29.54Q186.40-30.28 187.52-30.28L187.52-30.28Q188.64-30.28 189.38-29.58Q190.12-28.88 190.12-27.84L190.12-27.84Q190.12-26.76 189.38-26.02Q188.64-25.28 187.52-25.28L187.52-25.28Z M212.08-21.40Q216.12-21.40 218.50-19.06Q220.88-16.72 220.88-12.20L220.88-12.20L220.88 0L217.04 0L217.04-11.76Q217.04-14.84 215.56-16.40Q214.08-17.96 211.32-17.96L211.32-17.96Q208.20-17.96 206.40-16.14Q204.60-14.32 204.60-10.92L204.60-10.92L204.60 0L200.76 0L200.76-21.20L204.44-21.20L204.44-18Q205.60-19.64 207.58-20.52Q209.56-21.40 212.08-21.40L212.08-21.40Z M248.76-21.20L252.40-21.20L252.40-2.88Q252.40 2.68 249.64 5.34Q246.88 8 241.40 8L241.40 8Q238.40 8 235.68 7.18Q232.96 6.36 231.28 4.84L231.28 4.84L233.12 1.88Q234.60 3.16 236.78 3.90Q238.96 4.64 241.28 4.64L241.28 4.64Q245.00 4.64 246.78 2.88Q248.56 1.12 248.56-2.48L248.56-2.48L248.56-4.16Q247.20-2.52 245.22-1.70Q243.24-0.88 240.92-0.88L240.92-0.88Q237.88-0.88 235.42-2.18Q232.96-3.48 231.56-5.82Q230.16-8.16 230.16-11.16L230.16-11.16Q230.16-14.16 231.56-16.50Q232.96-18.84 235.42-20.12Q237.88-21.40 240.92-21.40L240.92-21.40Q243.32-21.40 245.38-20.52Q247.44-19.64 248.76-17.92L248.76-17.92L248.76-21.20ZM241.36-4.24Q243.44-4.24 245.10-5.12Q246.76-6 247.70-7.58Q248.64-9.16 248.64-11.16L248.64-11.16Q248.64-14.24 246.60-16.14Q244.56-18.04 241.36-18.04L241.36-18.04Q238.12-18.04 236.08-16.14Q234.04-14.24 234.04-11.16L234.04-11.16Q234.04-9.16 234.98-7.58Q235.92-6 237.58-5.12Q239.24-4.24 241.36-4.24L241.36-4.24Z M314.80-28L318.60-28L309.24 0L305.04 0L297.40-22.36L289.76 0L285.48 0L276.12-28L280.24-28L287.80-5.24L295.68-28L299.36-28L307.08-5.12L314.80-28Z M344.48-10.48Q344.48-10.04 344.40-9.32L344.40-9.32L327.20-9.32Q327.56-6.52 329.66-4.82Q331.76-3.12 334.88-3.12L334.88-3.12Q338.68-3.12 341.00-5.68L341.00-5.68L343.12-3.20Q341.68-1.52 339.54-0.64Q337.40 0.24 334.76 0.24L334.76 0.24Q331.40 0.24 328.80-1.14Q326.20-2.52 324.78-5Q323.36-7.48 323.36-10.60L323.36-10.60Q323.36-13.68 324.74-16.16Q326.12-18.64 328.54-20.02Q330.96-21.40 334.00-21.40L334.00-21.40Q337.04-21.40 339.42-20.02Q341.80-18.64 343.14-16.16Q344.48-13.68 344.48-10.48L344.48-10.48ZM334.00-18.16Q331.24-18.16 329.38-16.48Q327.52-14.80 327.20-12.08L327.20-12.08L340.80-12.08Q340.48-14.76 338.62-16.46Q336.76-18.16 334.00-18.16L334.00-18.16Z M365.04-21.40Q368.12-21.40 370.56-20.04Q373.00-18.68 374.38-16.24Q375.76-13.80 375.76-10.60L375.76-10.60Q375.76-7.40 374.38-4.94Q373.00-2.48 370.56-1.12Q368.12 0.24 365.04 0.24L365.04 0.24Q362.68 0.24 360.72-0.68Q358.76-1.60 357.48-3.36L357.48-3.36L357.48 0L353.80 0L353.80-29.68L357.64-29.68L357.64-18Q358.92-19.68 360.84-20.54Q362.76-21.40 365.04-21.40L365.04-21.40ZM364.72-3.12Q366.76-3.12 368.38-4.06Q370.00-5 370.94-6.70Q371.88-8.40 371.88-10.60L371.88-10.60Q371.88-12.80 370.94-14.50Q370.00-16.20 368.38-17.12Q366.76-18.04 364.72-18.04L364.72-18.04Q362.72-18.04 361.08-17.12Q359.44-16.20 358.52-14.50Q357.60-12.80 357.60-10.60L357.60-10.60Q357.60-8.40 358.52-6.70Q359.44-5 361.08-4.06Q362.72-3.12 364.72-3.12L364.72-3.12Z M408.56 0.32Q405.40 0.32 402.46-0.66Q399.52-1.64 397.84-3.20L397.84-3.20L399.32-6.32Q400.92-4.88 403.42-3.98Q405.92-3.08 408.56-3.08L408.56-3.08Q412.04-3.08 413.76-4.26Q415.48-5.44 415.48-7.40L415.48-7.40Q415.48-8.84 414.54-9.74Q413.60-10.64 412.22-11.12Q410.84-11.60 408.32-12.20L408.32-12.20Q405.16-12.96 403.22-13.72Q401.28-14.48 399.90-16.06Q398.52-17.64 398.52-20.32L398.52-20.32Q398.52-22.56 399.70-24.36Q400.88-26.16 403.28-27.24Q405.68-28.32 409.24-28.32L409.24-28.32Q411.72-28.32 414.12-27.68Q416.52-27.04 418.24-25.84L418.24-25.84L416.92-22.64Q415.16-23.76 413.16-24.34Q411.16-24.92 409.24-24.92L409.24-24.92Q405.84-24.92 404.14-23.68Q402.44-22.44 402.44-20.48L402.44-20.48Q402.44-19.04 403.40-18.14Q404.36-17.24 405.78-16.74Q407.20-16.24 409.64-15.68L409.64-15.68Q412.80-14.92 414.72-14.16Q416.64-13.40 418.02-11.84Q419.40-10.28 419.40-7.64L419.40-7.64Q419.40-5.44 418.20-3.62Q417.00-1.80 414.56-0.74Q412.12 0.32 408.56 0.32L408.56 0.32Z M437.76 0.24Q434.60 0.24 432.08-1.16Q429.56-2.56 428.14-5.02Q426.72-7.48 426.72-10.60L426.72-10.60Q426.72-13.72 428.14-16.18Q429.56-18.64 432.08-20.02Q434.60-21.40 437.76-21.40L437.76-21.40Q440.92-21.40 443.42-20.02Q445.92-18.64 447.34-16.18Q448.76-13.72 448.76-10.60L448.76-10.60Q448.76-7.48 447.34-5.02Q445.92-2.56 443.42-1.16Q440.92 0.24 437.76 0.24L437.76 0.24ZM437.76-3.12Q439.80-3.12 441.42-4.06Q443.04-5 443.96-6.70Q444.88-8.40 444.88-10.60L444.88-10.60Q444.88-12.80 443.96-14.50Q443.04-16.20 441.42-17.12Q439.80-18.04 437.76-18.04L437.76-18.04Q435.72-18.04 434.10-17.12Q432.48-16.20 431.54-14.50Q430.60-12.80 430.60-10.60L430.60-10.60Q430.60-8.40 431.54-6.70Q432.48-5 434.10-4.06Q435.72-3.12 437.76-3.12L437.76-3.12Z M458.08 0L458.08-29.68L461.92-29.68L461.92 0L458.08 0Z M489.16-21.20L493-21.20L493 0L489.36 0L489.36-3.20Q488.20-1.56 486.30-0.66Q484.40 0.24 482.16 0.24L482.16 0.24Q477.92 0.24 475.48-2.10Q473.04-4.44 473.04-9L473.04-9L473.04-21.20L476.88-21.20L476.88-9.44Q476.88-6.36 478.36-4.78Q479.84-3.20 482.60-3.20L482.60-3.20Q485.64-3.20 487.40-5.04Q489.16-6.88 489.16-10.24L489.16-10.24L489.16-21.20Z M515.04-4L516.24-1.24Q515.40-0.52 514.16-0.14Q512.92 0.24 511.60 0.24L511.60 0.24Q508.40 0.24 506.64-1.48Q504.88-3.20 504.88-6.40L504.88-6.40L504.88-18.04L501.28-18.04L501.28-21.20L504.88-21.20L504.88-25.84L508.72-25.84L508.72-21.20L514.80-21.20L514.80-18.04L508.72-18.04L508.72-6.56Q508.72-4.84 509.58-3.92Q510.44-3 512.04-3L512.04-3Q513.80-3 515.04-4L515.04-4Z M524.88 0L524.88-21.20L528.72-21.20L528.72 0L524.88 0ZM526.80-25.28Q525.68-25.28 524.94-26Q524.20-26.72 524.20-27.76L524.20-27.76Q524.20-28.80 524.94-29.54Q525.68-30.28 526.80-30.28L526.80-30.28Q527.92-30.28 528.66-29.58Q529.40-28.88 529.40-27.84L529.40-27.84Q529.40-26.76 528.66-26.02Q527.92-25.28 526.80-25.28L526.80-25.28Z M549.12 0.24Q545.96 0.24 543.44-1.16Q540.92-2.56 539.50-5.02Q538.08-7.48 538.08-10.60L538.08-10.60Q538.08-13.72 539.50-16.18Q540.92-18.64 543.44-20.02Q545.96-21.40 549.12-21.40L549.12-21.40Q552.28-21.40 554.78-20.02Q557.28-18.64 558.70-16.18Q560.12-13.72 560.12-10.60L560.12-10.60Q560.12-7.48 558.70-5.02Q557.28-2.56 554.78-1.16Q552.28 0.24 549.12 0.24L549.12 0.24ZM549.12-3.12Q551.16-3.12 552.78-4.06Q554.40-5 555.32-6.70Q556.24-8.40 556.24-10.60L556.24-10.60Q556.24-12.80 555.32-14.50Q554.40-16.20 552.78-17.12Q551.16-18.04 549.12-18.04L549.12-18.04Q547.08-18.04 545.46-17.12Q543.84-16.20 542.90-14.50Q541.96-12.80 541.96-10.60L541.96-10.60Q541.96-8.40 542.90-6.70Q543.84-5 545.46-4.06Q547.08-3.12 549.12-3.12L549.12-3.12Z M580.76-21.40Q584.80-21.40 587.18-19.06Q589.56-16.72 589.56-12.20L589.56-12.20L589.56 0L585.72 0L585.72-11.76Q585.72-14.84 584.24-16.40Q582.76-17.96 580-17.96L580-17.96Q576.88-17.96 575.08-16.14Q573.28-14.32 573.28-10.92L573.28-10.92L573.28 0L569.44 0L569.44-21.20L573.12-21.20L573.12-18Q574.28-19.64 576.26-20.52Q578.24-21.40 580.76-21.40L580.76-21.40Z M606.76 0.24Q604.16 0.24 601.76-0.46Q599.36-1.16 598-2.24L598-2.24L599.60-5.28Q601-4.28 603-3.68Q605-3.08 607.04-3.08L607.04-3.08Q612.08-3.08 612.08-5.96L612.08-5.96Q612.08-6.92 611.40-7.48Q610.72-8.04 609.70-8.30Q608.68-8.56 606.80-8.88L606.80-8.88Q604.24-9.28 602.62-9.80Q601-10.32 599.84-11.56Q598.68-12.80 598.68-15.04L598.68-15.04Q598.68-17.92 601.08-19.66Q603.48-21.40 607.52-21.40L607.52-21.40Q609.64-21.40 611.76-20.88Q613.88-20.36 615.24-19.48L615.24-19.48L613.60-16.44Q611-18.12 607.48-18.12L607.48-18.12Q605.04-18.12 603.76-17.32Q602.48-16.52 602.48-15.20L602.48-15.20Q602.48-14.16 603.20-13.56Q603.92-12.96 604.98-12.68Q606.04-12.40 607.96-12.04L607.96-12.04Q610.52-11.60 612.10-11.10Q613.68-10.60 614.80-9.40Q615.92-8.20 615.92-6.04L615.92-6.04Q615.92-3.16 613.46-1.46Q611 0.24 606.76 0.24L606.76 0.24Z"/></g>
</svg>
</g><g filter="url(#Q-iYOAdpak)"><g opacity="1" transform="rotate(0 9.7034 172)">
<svg width="380.5932" height="32" x="9.7034" y="172" version="1.1" preserveAspectRatio="none" viewBox="0.8 -30 356.79999999999995 30">
  <g transform="matrix(1 0 0 1 0 0)" class="companyName"><defs><path id="id-D6z1nYkh15" d="M17.44-3.20L17.44 0L5.76 0L5.76-3.20L9.76-3.20L9.76-26.80L3.84-26.80L3.84-22.16L0.80-22.16L0.80-30L22.40-30L22.40-22.16L19.36-22.16L19.36-26.80L13.44-26.80L13.44-3.20L17.44-3.20Z M26 0L26-3.20L29.20-3.20L29.20-26.80L26-26.80L26-30L36.08-30L36.08-26.80L32.88-26.80L32.88-3.20L36.08-3.20L36.08 0L26 0Z M42.08-26.80L42.08-30L58.08-30L62.24-25.60L62.24-16.40L58.08-12L48.56-12L48.56-3.20L51.76-3.20L51.76 0L42.08 0L42.08-3.20L44.88-3.20L44.88-26.80L42.08-26.80ZM56.52-26.56L48.56-26.56L48.56-15.44L56.48-15.44L58.80-17.80L58.80-24.20L56.52-26.56Z M82.48 0L71.20 0L67.04-4.40L67.04-25.60L71.20-30L82.48-30L86.64-25.60L86.64-4.40L82.48 0ZM70.72-5.56L72.76-3.44L80.88-3.44L82.96-5.56L82.96-24.44L80.92-26.56L72.80-26.56L70.72-24.44L70.72-5.56Z M107.04-26.80L107.04-30L124.08-30L128.24-25.60L128.24-4.40L124.08 0L107.04 0L107.04-3.20L109.84-3.20L109.84-26.80L107.04-26.80ZM113.52-26.56L113.52-3.44L122.48-3.44L124.56-5.56L124.56-24.44L122.52-26.56L113.52-26.56Z M134.64-26.80L134.64-30L153.68-30L153.68-22.16L150.48-22.16L150.48-26.80L141.12-26.80L141.12-16.60L150.48-16.60L150.48-13.40L141.12-13.40L141.12-3.20L150.48-3.20L150.48-7.84L153.68-7.84L153.68 0L134.64 0L134.64-3.20L137.44-3.20L137.44-26.80L134.64-26.80Z M159.72-26.80L157.68-26.80L157.68-30L166.16-30L166.16-26.80L163.40-26.80L170.60-3.64L177.84-26.80L175.08-26.80L175.08-30L183.56-30L183.56-26.80L181.52-26.80L173.16 0L168.08 0L159.72-26.80Z M187.56-26.80L187.56-30L206.60-30L206.60-22.16L203.40-22.16L203.40-26.80L194.04-26.80L194.04-16.60L203.40-16.60L203.40-13.40L194.04-13.40L194.04-3.20L203.40-3.20L203.40-7.84L206.60-7.84L206.60 0L187.56 0L187.56-3.20L190.36-3.20L190.36-26.80L187.56-26.80Z M213.00-26.80L213.00-30L222.68-30L222.68-26.80L219.48-26.80L219.48-3.20L228.20-3.20L228.20-7.84L231.24-7.84L231.24 0L213.00 0L213.00-3.20L215.80-3.20L215.80-26.80L213.00-26.80Z M250.68 0L239.40 0L235.24-4.40L235.24-25.60L239.40-30L250.68-30L254.84-25.60L254.84-4.40L250.68 0ZM238.92-5.56L240.96-3.44L249.08-3.44L251.16-5.56L251.16-24.44L249.12-26.56L241-26.56L238.92-24.44L238.92-5.56Z M261.24-26.80L261.24-30L277.24-30L281.40-25.60L281.40-16.40L277.24-12L267.72-12L267.72-3.20L270.92-3.20L270.92 0L261.24 0L261.24-3.20L264.04-3.20L264.04-26.80L261.24-26.80ZM275.68-26.56L267.72-26.56L267.72-15.44L275.64-15.44L277.96-17.80L277.96-24.20L275.68-26.56Z M286.20-26.80L286.20-30L305.24-30L305.24-22.16L302.04-22.16L302.04-26.80L292.68-26.80L292.68-16.60L302.04-16.60L302.04-13.40L292.68-13.40L292.68-3.20L302.04-3.20L302.04-7.84L305.24-7.84L305.24 0L286.20 0L286.20-3.20L289.00-3.20L289.00-26.80L286.20-26.80Z M311.64-26.80L311.64-30L327.64-30L331.80-25.60L331.80-16.80L327.64-12.40L331.92-3.20L334.00-3.20L334.00 0L326.48 0L326.48-3.20L328.04-3.20L323.76-12.40L318.12-12.40L318.12-3.20L320.52-3.20L320.52 0L311.64 0L311.64-3.20L314.44-3.20L314.44-26.80L311.64-26.80ZM326.08-26.56L318.12-26.56L318.12-15.84L326.04-15.84L328.36-18.20L328.36-24.20L326.08-26.56Z M357.20-25.60L357.20-20.56L353.88-20.56L353.88-24.08L351.48-26.56L345.36-26.56L343.28-24.44L343.28-18.92L345.24-16.92L353.56-16.92L357.60-12.68L357.60-4.40L353.44 0L343.36 0L339.20-4.40L339.20-9.44L342.52-9.44L342.52-5.92L344.96-3.44L351.88-3.44L353.92-5.56L353.92-11.52L352.00-13.48L343.68-13.48L339.60-17.76L339.60-25.60L343.76-30L353.04-30L357.20-25.60Z"/></defs>
  <clipPath id="id-D6z1nYkh15-clip"><use xlink:href="#id-D6z1nYkh15" /></clipPath>
  <g clip-path="url(#id-D6z1nYkh15-clip)"><use xlink:href="#id-D6z1nYkh15" class="background-str" style="stroke-width:1.25;"/></g>
  </g>
</svg>
</g></g></svg></svg>