<svg version="1.1" preserveAspectRatio="none" xmlns="http://www.w3.org/2000/svg" width="500" height="500" viewBox="0 0 500 500"><rect width="100%" height="100%" fill="#1E1F22" fill-opacity="1"/><svg viewBox="19.214 148.12 415.721 64.8" width="333" height="51.905965779934135" x="83.5px" y="224.047px" xmlns="http://www.w3.org/2000/svg" xmlns:xlink="http://www.w3.org/1999/xlink" preserveAspectRatio="none"><defs></defs><style>.companyName {fill:#EBE7D9;fill-opacity:1;}.icon3 {fill:#F55139;fill-opacity:1;}.icon3-str {stroke:#F55139;stroke-opacity:1;}</style><g opacity="1" transform="rotate(0 19.214 192.12)">
<svg width="297.3924" height="20.8" x="19.214" y="192.12" version="1.1" preserveAspectRatio="none" viewBox="4.2 -30.28 547.3199999999999 38.28">
  <g transform="matrix(1 0 0 1 0 0)" class="icon3"><path id="id-6izo4zJp24" d="M4.20 0L4.20-28L8.20-28L8.20 0L4.20 0Z M28.56-21.40Q32.60-21.40 34.98-19.06Q37.36-16.72 37.36-12.20L37.36-12.20L37.36 0L33.52 0L33.52-11.76Q33.52-14.84 32.04-16.40Q30.56-17.96 27.80-17.96L27.80-17.96Q24.68-17.96 22.88-16.14Q21.08-14.32 21.08-10.92L21.08-10.92L21.08 0L17.24 0L17.24-21.20L20.92-21.20L20.92-18Q22.08-19.64 24.06-20.52Q26.04-21.40 28.56-21.40L28.56-21.40Z M57.00-21.40Q61.04-21.40 63.42-19.06Q65.80-16.72 65.80-12.20L65.80-12.20L65.80 0L61.96 0L61.96-11.76Q61.96-14.84 60.48-16.40Q59.00-17.96 56.24-17.96L56.24-17.96Q53.12-17.96 51.32-16.14Q49.52-14.32 49.52-10.92L49.52-10.92L49.52 0L45.68 0L45.68-21.20L49.36-21.20L49.36-18Q50.52-19.64 52.50-20.52Q54.48-21.40 57.00-21.40L57.00-21.40Z M83.32 0.24Q80.16 0.24 77.64-1.16Q75.12-2.56 73.70-5.02Q72.28-7.48 72.28-10.60L72.28-10.60Q72.28-13.72 73.70-16.18Q75.12-18.64 77.64-20.02Q80.16-21.40 83.32-21.40L83.32-21.40Q86.48-21.40 88.98-20.02Q91.48-18.64 92.90-16.18Q94.32-13.72 94.32-10.60L94.32-10.60Q94.32-7.48 92.90-5.02Q91.48-2.56 88.98-1.16Q86.48 0.24 83.32 0.24L83.32 0.24ZM83.32-3.12Q85.36-3.12 86.98-4.06Q88.60-5 89.52-6.70Q90.44-8.40 90.44-10.60L90.44-10.60Q90.44-12.80 89.52-14.50Q88.60-16.20 86.98-17.12Q85.36-18.04 83.32-18.04L83.32-18.04Q81.28-18.04 79.66-17.12Q78.04-16.20 77.10-14.50Q76.16-12.80 76.16-10.60L76.16-10.60Q76.16-8.40 77.10-6.70Q78.04-5 79.66-4.06Q81.28-3.12 83.32-3.12L83.32-3.12Z M115.24-21.20L119.00-21.20L109.72 0L105.80 0L96.52-21.20L100.52-21.20L107.80-4.20L115.24-21.20Z M130.84-21.40Q135.24-21.40 137.58-19.24Q139.92-17.08 139.92-12.80L139.92-12.80L139.92 0L136.28 0L136.28-2.80Q135.32-1.32 133.54-0.54Q131.76 0.24 129.32 0.24L129.32 0.24Q125.76 0.24 123.62-1.48Q121.48-3.20 121.48-6L121.48-6Q121.48-8.80 123.52-10.50Q125.56-12.20 130.00-12.20L130.00-12.20L136.08-12.20L136.08-12.96Q136.08-15.44 134.64-16.76Q133.20-18.08 130.40-18.08L130.40-18.08Q128.52-18.08 126.72-17.46Q124.92-16.84 123.68-15.80L123.68-15.80L122.08-18.68Q123.72-20 126.00-20.70Q128.28-21.40 130.84-21.40L130.84-21.40ZM129.96-2.72Q132.16-2.72 133.76-3.70Q135.36-4.68 136.08-6.48L136.08-6.48L136.08-9.44L130.16-9.44Q125.28-9.44 125.28-6.16L125.28-6.16Q125.28-4.56 126.52-3.64Q127.76-2.72 129.96-2.72L129.96-2.72Z M158.96-4L160.16-1.24Q159.32-0.52 158.08-0.14Q156.84 0.24 155.52 0.24L155.52 0.24Q152.32 0.24 150.56-1.48Q148.80-3.20 148.80-6.40L148.80-6.40L148.80-18.04L145.20-18.04L145.20-21.20L148.80-21.20L148.80-25.84L152.64-25.84L152.64-21.20L158.72-21.20L158.72-18.04L152.64-18.04L152.64-6.56Q152.64-4.84 153.50-3.92Q154.36-3 155.96-3L155.96-3Q157.72-3 158.96-4L158.96-4Z M166 0L166-21.20L169.84-21.20L169.84 0L166 0ZM167.92-25.28Q166.80-25.28 166.06-26Q165.32-26.72 165.32-27.76L165.32-27.76Q165.32-28.80 166.06-29.54Q166.80-30.28 167.92-30.28L167.92-30.28Q169.04-30.28 169.78-29.58Q170.52-28.88 170.52-27.84L170.52-27.84Q170.52-26.76 169.78-26.02Q169.04-25.28 167.92-25.28L167.92-25.28Z M189.68-21.40Q193.72-21.40 196.10-19.06Q198.48-16.72 198.48-12.20L198.48-12.20L198.48 0L194.64 0L194.64-11.76Q194.64-14.84 193.16-16.40Q191.68-17.96 188.92-17.96L188.92-17.96Q185.80-17.96 184-16.14Q182.20-14.32 182.20-10.92L182.20-10.92L182.20 0L178.36 0L178.36-21.20L182.04-21.20L182.04-18Q183.20-19.64 185.18-20.52Q187.16-21.40 189.68-21.40L189.68-21.40Z M223.56-21.20L227.20-21.20L227.20-2.88Q227.20 2.68 224.44 5.34Q221.68 8 216.20 8L216.20 8Q213.20 8 210.48 7.18Q207.76 6.36 206.08 4.84L206.08 4.84L207.92 1.88Q209.40 3.16 211.58 3.90Q213.76 4.64 216.08 4.64L216.08 4.64Q219.80 4.64 221.58 2.88Q223.36 1.12 223.36-2.48L223.36-2.48L223.36-4.16Q222-2.52 220.02-1.70Q218.04-0.88 215.72-0.88L215.72-0.88Q212.68-0.88 210.22-2.18Q207.76-3.48 206.36-5.82Q204.96-8.16 204.96-11.16L204.96-11.16Q204.96-14.16 206.36-16.50Q207.76-18.84 210.22-20.12Q212.68-21.40 215.72-21.40L215.72-21.40Q218.12-21.40 220.18-20.52Q222.24-19.64 223.56-17.92L223.56-17.92L223.56-21.20ZM216.16-4.24Q218.24-4.24 219.90-5.12Q221.56-6 222.50-7.58Q223.44-9.16 223.44-11.16L223.44-11.16Q223.44-14.24 221.40-16.14Q219.36-18.04 216.16-18.04L216.16-18.04Q212.92-18.04 210.88-16.14Q208.84-14.24 208.84-11.16L208.84-11.16Q208.84-9.16 209.78-7.58Q210.72-6 212.38-5.12Q214.04-4.24 216.16-4.24L216.16-4.24Z M284.00-28L287.80-28L278.44 0L274.24 0L266.60-22.36L258.96 0L254.68 0L245.32-28L249.44-28L257.00-5.24L264.88-28L268.56-28L276.28-5.12L284.00-28Z M310.88-10.48Q310.88-10.04 310.80-9.32L310.80-9.32L293.60-9.32Q293.96-6.52 296.06-4.82Q298.16-3.12 301.28-3.12L301.28-3.12Q305.08-3.12 307.40-5.68L307.40-5.68L309.52-3.20Q308.08-1.52 305.94-0.64Q303.80 0.24 301.16 0.24L301.16 0.24Q297.80 0.24 295.20-1.14Q292.60-2.52 291.18-5Q289.76-7.48 289.76-10.60L289.76-10.60Q289.76-13.68 291.14-16.16Q292.52-18.64 294.94-20.02Q297.36-21.40 300.40-21.40L300.40-21.40Q303.44-21.40 305.82-20.02Q308.20-18.64 309.54-16.16Q310.88-13.68 310.88-10.48L310.88-10.48ZM300.40-18.16Q297.64-18.16 295.78-16.48Q293.92-14.80 293.60-12.08L293.60-12.08L307.20-12.08Q306.88-14.76 305.02-16.46Q303.16-18.16 300.40-18.16L300.40-18.16Z M328.64-21.40Q331.72-21.40 334.16-20.04Q336.60-18.68 337.98-16.24Q339.36-13.80 339.36-10.60L339.36-10.60Q339.36-7.40 337.98-4.94Q336.60-2.48 334.16-1.12Q331.72 0.24 328.64 0.24L328.64 0.24Q326.28 0.24 324.32-0.68Q322.36-1.60 321.08-3.36L321.08-3.36L321.08 0L317.40 0L317.40-29.68L321.24-29.68L321.24-18Q322.52-19.68 324.44-20.54Q326.36-21.40 328.64-21.40L328.64-21.40ZM328.32-3.12Q330.36-3.12 331.98-4.06Q333.60-5 334.54-6.70Q335.48-8.40 335.48-10.60L335.48-10.60Q335.48-12.80 334.54-14.50Q333.60-16.20 331.98-17.12Q330.36-18.04 328.32-18.04L328.32-18.04Q326.32-18.04 324.68-17.12Q323.04-16.20 322.12-14.50Q321.20-12.80 321.20-10.60L321.20-10.60Q321.20-8.40 322.12-6.70Q323.04-5 324.68-4.06Q326.32-3.12 328.32-3.12L328.32-3.12Z M366.56 0.32Q363.40 0.32 360.46-0.66Q357.52-1.64 355.84-3.20L355.84-3.20L357.32-6.32Q358.92-4.88 361.42-3.98Q363.92-3.08 366.56-3.08L366.56-3.08Q370.04-3.08 371.76-4.26Q373.48-5.44 373.48-7.40L373.48-7.40Q373.48-8.84 372.54-9.74Q371.60-10.64 370.22-11.12Q368.84-11.60 366.32-12.20L366.32-12.20Q363.16-12.96 361.22-13.72Q359.28-14.48 357.90-16.06Q356.52-17.64 356.52-20.32L356.52-20.32Q356.52-22.56 357.70-24.36Q358.88-26.16 361.28-27.24Q363.68-28.32 367.24-28.32L367.24-28.32Q369.72-28.32 372.12-27.68Q374.52-27.04 376.24-25.84L376.24-25.84L374.92-22.64Q373.16-23.76 371.16-24.34Q369.16-24.92 367.24-24.92L367.24-24.92Q363.84-24.92 362.14-23.68Q360.44-22.44 360.44-20.48L360.44-20.48Q360.44-19.04 361.40-18.14Q362.36-17.24 363.78-16.74Q365.20-16.24 367.64-15.68L367.64-15.68Q370.80-14.92 372.72-14.16Q374.64-13.40 376.02-11.84Q377.40-10.28 377.40-7.64L377.40-7.64Q377.40-5.44 376.20-3.62Q375.00-1.80 372.56-0.74Q370.12 0.32 366.56 0.32L366.56 0.32Z M392.96 0.24Q389.80 0.24 387.28-1.16Q384.76-2.56 383.34-5.02Q381.92-7.48 381.92-10.60L381.92-10.60Q381.92-13.72 383.34-16.18Q384.76-18.64 387.28-20.02Q389.80-21.40 392.96-21.40L392.96-21.40Q396.12-21.40 398.62-20.02Q401.12-18.64 402.54-16.18Q403.96-13.72 403.96-10.60L403.96-10.60Q403.96-7.48 402.54-5.02Q401.12-2.56 398.62-1.16Q396.12 0.24 392.96 0.24L392.96 0.24ZM392.96-3.12Q395.00-3.12 396.62-4.06Q398.24-5 399.16-6.70Q400.08-8.40 400.08-10.60L400.08-10.60Q400.08-12.80 399.16-14.50Q398.24-16.20 396.62-17.12Q395.00-18.04 392.96-18.04L392.96-18.04Q390.92-18.04 389.30-17.12Q387.68-16.20 386.74-14.50Q385.80-12.80 385.80-10.60L385.80-10.60Q385.80-8.40 386.74-6.70Q387.68-5 389.30-4.06Q390.92-3.12 392.96-3.12L392.96-3.12Z M410.48 0L410.48-29.68L414.32-29.68L414.32 0L410.48 0Z M438.76-21.20L442.60-21.20L442.60 0L438.96 0L438.96-3.20Q437.80-1.56 435.90-0.66Q434.00 0.24 431.76 0.24L431.76 0.24Q427.52 0.24 425.08-2.10Q422.64-4.44 422.64-9L422.64-9L422.64-21.20L426.48-21.20L426.48-9.44Q426.48-6.36 427.96-4.78Q429.44-3.20 432.20-3.20L432.20-3.20Q435.24-3.20 437.00-5.04Q438.76-6.88 438.76-10.24L438.76-10.24L438.76-21.20Z M461.84-4L463.04-1.24Q462.20-0.52 460.96-0.14Q459.72 0.24 458.40 0.24L458.40 0.24Q455.20 0.24 453.44-1.48Q451.68-3.20 451.68-6.40L451.68-6.40L451.68-18.04L448.08-18.04L448.08-21.20L451.68-21.20L451.68-25.84L455.52-25.84L455.52-21.20L461.60-21.20L461.60-18.04L455.52-18.04L455.52-6.56Q455.52-4.84 456.38-3.92Q457.24-3 458.84-3L458.84-3Q460.60-3 461.84-4L461.84-4Z M468.88 0L468.88-21.20L472.72-21.20L472.72 0L468.88 0ZM470.80-25.28Q469.68-25.28 468.94-26Q468.20-26.72 468.20-27.76L468.20-27.76Q468.20-28.80 468.94-29.54Q469.68-30.28 470.80-30.28L470.80-30.28Q471.92-30.28 472.66-29.58Q473.40-28.88 473.40-27.84L473.40-27.84Q473.40-26.76 472.66-26.02Q471.92-25.28 470.80-25.28L470.80-25.28Z M490.32 0.24Q487.16 0.24 484.64-1.16Q482.12-2.56 480.70-5.02Q479.28-7.48 479.28-10.60L479.28-10.60Q479.28-13.72 480.70-16.18Q482.12-18.64 484.64-20.02Q487.16-21.40 490.32-21.40L490.32-21.40Q493.48-21.40 495.98-20.02Q498.48-18.64 499.90-16.18Q501.32-13.72 501.32-10.60L501.32-10.60Q501.32-7.48 499.90-5.02Q498.48-2.56 495.98-1.16Q493.48 0.24 490.32 0.24L490.32 0.24ZM490.32-3.12Q492.36-3.12 493.98-4.06Q495.60-5 496.52-6.70Q497.44-8.40 497.44-10.60L497.44-10.60Q497.44-12.80 496.52-14.50Q495.60-16.20 493.98-17.12Q492.36-18.04 490.32-18.04L490.32-18.04Q488.28-18.04 486.66-17.12Q485.04-16.20 484.10-14.50Q483.16-12.80 483.16-10.60L483.16-10.60Q483.16-8.40 484.10-6.70Q485.04-5 486.66-4.06Q488.28-3.12 490.32-3.12L490.32-3.12Z M519.16-21.40Q523.20-21.40 525.58-19.06Q527.96-16.72 527.96-12.20L527.96-12.20L527.96 0L524.12 0L524.12-11.76Q524.12-14.84 522.64-16.40Q521.16-17.96 518.40-17.96L518.40-17.96Q515.28-17.96 513.48-16.14Q511.68-14.32 511.68-10.92L511.68-10.92L511.68 0L507.84 0L507.84-21.20L511.52-21.20L511.52-18Q512.68-19.64 514.66-20.52Q516.64-21.40 519.16-21.40L519.16-21.40Z M542.36 0.24Q539.76 0.24 537.36-0.46Q534.96-1.16 533.60-2.24L533.60-2.24L535.20-5.28Q536.60-4.28 538.60-3.68Q540.60-3.08 542.64-3.08L542.64-3.08Q547.68-3.08 547.68-5.96L547.68-5.96Q547.68-6.92 547.00-7.48Q546.32-8.04 545.30-8.30Q544.28-8.56 542.40-8.88L542.40-8.88Q539.84-9.28 538.22-9.80Q536.60-10.32 535.44-11.56Q534.28-12.80 534.28-15.04L534.28-15.04Q534.28-17.92 536.68-19.66Q539.08-21.40 543.12-21.40L543.12-21.40Q545.24-21.40 547.36-20.88Q549.48-20.36 550.84-19.48L550.84-19.48L549.20-16.44Q546.60-18.12 543.08-18.12L543.08-18.12Q540.64-18.12 539.36-17.32Q538.08-16.52 538.08-15.20L538.08-15.20Q538.08-14.16 538.80-13.56Q539.52-12.96 540.58-12.68Q541.64-12.40 543.56-12.04L543.56-12.04Q546.12-11.60 547.70-11.10Q549.28-10.60 550.40-9.40Q551.52-8.20 551.52-6.04L551.52-6.04Q551.52-3.16 549.06-1.46Q546.60 0.24 542.36 0.24L542.36 0.24Z"/></g>
</svg>
</g><g opacity="1" transform="rotate(0 54.2278 148.12)">
<svg width="380.7072" height="28" x="54.2278" y="148.12" version="1.1" preserveAspectRatio="none" viewBox="2.52 -28.48 393.76 28.96">
  <g transform="matrix(1 0 0 1 0 0)" class="companyName"><path id="id-D6z1nYkh15" d="M6.96 0L11.48-22.72L2.52-22.72L3.60-28L28-28L26.92-22.72L18-22.72L13.44 0L6.96 0Z M25.88 0L31.48-28L38-28L32.40 0L25.88 0Z M55.92-28Q61.16-28 64.02-25.70Q66.88-23.40 66.88-19.28L66.88-19.28Q66.88-15.76 65.22-13.14Q63.56-10.52 60.50-9.12Q57.44-7.72 53.28-7.72L53.28-7.72L47.04-7.72L45.52 0L39 0L44.60-28L55.92-28ZM53.56-13Q56.80-13 58.56-14.48Q60.32-15.96 60.32-18.72L60.32-18.72Q60.32-20.72 58.98-21.72Q57.64-22.72 55.12-22.72L55.12-22.72L50.04-22.72L48.08-13L53.56-13Z M82.80 0.48Q78.60 0.48 75.52-1.04Q72.44-2.56 70.80-5.32Q69.16-8.08 69.16-11.68L69.16-11.68Q69.16-16.44 71.34-20.26Q73.52-24.08 77.46-26.28Q81.40-28.48 86.48-28.48L86.48-28.48Q90.68-28.48 93.76-26.96Q96.84-25.44 98.48-22.68Q100.12-19.92 100.12-16.32L100.12-16.32Q100.12-11.56 97.94-7.74Q95.76-3.92 91.82-1.72Q87.88 0.48 82.80 0.48L82.80 0.48ZM83.36-5.04Q86.44-5.04 88.76-6.52Q91.08-8 92.32-10.48Q93.56-12.96 93.56-15.96L93.56-15.96Q93.56-19.16 91.56-21.06Q89.56-22.96 85.92-22.96L85.92-22.96Q82.84-22.96 80.52-21.48Q78.20-20 76.96-17.52Q75.72-15.04 75.72-12.04L75.72-12.04Q75.72-8.84 77.72-6.94Q79.72-5.04 83.36-5.04L83.36-5.04Z M113.36 0L118.96-28L130.68-28Q134.96-28 138.06-26.58Q141.16-25.16 142.82-22.52Q144.48-19.88 144.48-16.32L144.48-16.32Q144.48-11.44 142.28-7.74Q140.08-4.04 136.14-2.02Q132.20 0 127.04 0L127.04 0L113.36 0ZM120.92-5.32L127.24-5.32Q130.52-5.32 132.94-6.70Q135.36-8.08 136.64-10.50Q137.92-12.92 137.92-15.96L137.92-15.96Q137.92-19.12 135.88-20.90Q133.84-22.68 129.96-22.68L129.96-22.68L124.40-22.68L120.92-5.32Z M172.08-22.80L157.40-22.80L156.20-16.72L169.20-16.72L168.20-11.68L155.16-11.68L153.88-5.20L169.16-5.20L168.08 0L146.40 0L152.00-28L173.16-28L172.08-22.80Z M198.64-28L205.36-28L187.64 0L181.28 0L174.76-28L181.44-28L185.96-8.04L198.64-28Z M227.76-22.80L213.08-22.80L211.88-16.72L224.88-16.72L223.88-11.68L210.84-11.68L209.56-5.20L224.84-5.20L223.76 0L202.08 0L207.68-28L228.84-28L227.76-22.80Z M228.92 0L234.52-28L241.04-28L236.48-5.28L250.52-5.28L249.44 0L228.92 0Z M267.12 0.48Q262.92 0.48 259.84-1.04Q256.76-2.56 255.12-5.32Q253.48-8.08 253.48-11.68L253.48-11.68Q253.48-16.44 255.66-20.26Q257.84-24.08 261.78-26.28Q265.72-28.48 270.80-28.48L270.80-28.48Q275-28.48 278.08-26.96Q281.16-25.44 282.80-22.68Q284.44-19.92 284.44-16.32L284.44-16.32Q284.44-11.56 282.26-7.74Q280.08-3.92 276.14-1.72Q272.20 0.48 267.12 0.48L267.12 0.48ZM267.68-5.04Q270.76-5.04 273.08-6.52Q275.40-8 276.64-10.48Q277.88-12.96 277.88-15.96L277.88-15.96Q277.88-19.16 275.88-21.06Q273.88-22.96 270.24-22.96L270.24-22.96Q267.16-22.96 264.84-21.48Q262.52-20 261.28-17.52Q260.04-15.04 260.04-12.04L260.04-12.04Q260.04-8.84 262.04-6.94Q264.04-5.04 267.68-5.04L267.68-5.04Z M303.28-28Q308.52-28 311.38-25.70Q314.24-23.40 314.24-19.28L314.24-19.28Q314.24-15.76 312.58-13.14Q310.92-10.52 307.86-9.12Q304.80-7.72 300.64-7.72L300.64-7.72L294.40-7.72L292.88 0L286.36 0L291.96-28L303.28-28ZM300.92-13Q304.16-13 305.92-14.48Q307.68-15.96 307.68-18.72L307.68-18.72Q307.68-20.72 306.34-21.72Q305-22.72 302.48-22.72L302.48-22.72L297.40-22.72L295.44-13L300.92-13Z M340.92-22.80L326.24-22.80L325.04-16.72L338.04-16.72L337.04-11.68L324.00-11.68L322.72-5.20L338.00-5.20L336.92 0L315.24 0L320.84-28L342.00-28L340.92-22.80Z M370.04-19.32Q370.04-15.40 367.92-12.60Q365.80-9.80 362.04-8.64L362.04-8.64L366.92 0L360.08 0L355.68-7.84L350.16-7.84L348.60 0L342.08 0L347.68-28L359.08-28Q364.28-28 367.16-25.72Q370.04-23.44 370.04-19.32L370.04-19.32ZM356.68-13Q359.92-13 361.70-14.48Q363.48-15.96 363.48-18.72L363.48-18.72Q363.48-20.72 362.12-21.72Q360.76-22.72 358.24-22.72L358.24-22.72L353.12-22.72L351.16-13L356.68-13Z M381.24 0.48Q377.92 0.48 374.88-0.40Q371.84-1.28 370-2.64L370-2.64L372.64-7.64Q374.56-6.24 376.96-5.48Q379.36-4.72 381.88-4.72L381.88-4.72Q384.56-4.72 386.12-5.60Q387.68-6.48 387.68-8L387.68-8Q387.68-9.24 386.44-9.90Q385.20-10.56 382.48-11.32L382.48-11.32Q379.76-12.12 378.04-12.86Q376.32-13.60 375.06-15.08Q373.80-16.56 373.80-19L373.80-19Q373.80-21.84 375.38-24Q376.96-26.16 379.86-27.32Q382.76-28.48 386.60-28.48L386.60-28.48Q389.44-28.48 391.96-27.86Q394.48-27.24 396.28-26.08L396.28-26.08L393.84-21.12Q392.28-22.20 390.32-22.74Q388.36-23.28 386.24-23.28L386.24-23.28Q383.48-23.28 381.88-22.32Q380.28-21.36 380.28-19.84L380.28-19.84Q380.28-18.92 380.96-18.30Q381.64-17.68 382.68-17.30Q383.72-16.92 385.60-16.40L385.60-16.40Q388.28-15.68 390-14.94Q391.72-14.20 392.94-12.78Q394.16-11.36 394.16-9.04L394.16-9.04Q394.16-6.16 392.56-4.02Q390.96-1.88 388.04-0.70Q385.12 0.48 381.24 0.48L381.24 0.48Z"/></g>
</svg>
</g><g opacity="1" transform="rotate(0 19.214 148.12)">
<svg width="35.0138" height="28" x="19.214" y="148.12" version="1.1" preserveAspectRatio="none" viewBox="-4.6 -33.68 47.12 37.68">
  <g transform="matrix(1 0 0 1 0 0)" class="icon3"><path id="id-hTdFi603-2" d="M-4.60 4L15.88-33.68L24.12-33.68L3.64 4L-4.60 4Z M13.80 4L34.28-33.68L42.52-33.68L22.04 4L13.80 4Z"/></g>
</svg>
</g></svg></svg>