<svg version="1.1" preserveAspectRatio="none" xmlns="http://www.w3.org/2000/svg" width="500" height="500" viewBox="0 0 500 500"><rect width="100%" height="100%" fill="#121212" fill-opacity="1"/><svg viewBox="-13.3843 8.6695 360.2122 272.1061" width="333" height="251.54986782790812" x="83.5px" y="124.2251px" xmlns="http://www.w3.org/2000/svg" xmlns:xlink="http://www.w3.org/1999/xlink" preserveAspectRatio="none"><defs></defs><style>.companyName {fill:#E3E3E3;fill-opacity:1;}.icon1 {fill:#F1EC40;fill-opacity:1;}.icon2 {fill:#555555;fill-opacity:1;}.icon3 {fill:#AAAAAA;fill-opacity:1;}.icon3-str {stroke:#AAAAAA;stroke-opacity:1;}.text {fill:#E3E3E3;fill-opacity:1;}</style><g opacity="1" transform="rotate(0 32.8206 262.7756)">
<svg width="267.8025" height="18" x="32.8206" y="262.7756" version="1.1" preserveAspectRatio="none" viewBox="3.24 -28 539.16 36.239999999999995">
  <g transform="matrix(1 0 0 1 0 0)" class="text"><path id="id-6izo4zJp24" d="M6.24-26.48L6.24 0L3.24 0L3.24-26.48L6.24-26.48Z M16.08-20L19.08-20L19.08-16.88Q20.16-18.32 21.72-19.32Q23.28-20.32 25.28-20.32Q27.28-20.32 28.72-19.76Q30.16-19.20 31.24-18.08L31.24-18.08Q33.72-15.64 33.72-11.64L33.72-11.64L33.72 0L30.72 0L30.72-11.56Q30.72-14.32 29.16-15.96Q27.60-17.60 25.12-17.60L25.12-17.60Q22.60-17.60 20.84-15.92L20.84-15.92Q19.08-14.20 19.08-11.52L19.08-11.52L19.08 0L16.08 0L16.08-20Z M42.72-20L45.72-20L45.72-16.88Q46.80-18.32 48.36-19.32Q49.92-20.32 51.92-20.32Q53.92-20.32 55.36-19.76Q56.80-19.20 57.88-18.08L57.88-18.08Q60.36-15.64 60.36-11.64L60.36-11.64L60.36 0L57.36 0L57.36-11.56Q57.36-14.32 55.80-15.96Q54.24-17.60 51.76-17.60L51.76-17.60Q49.24-17.60 47.48-15.92L47.48-15.92Q45.72-14.20 45.72-11.52L45.72-11.52L45.72 0L42.72 0L42.72-20Z M78.04-20.32L78.04-20.32Q82.52-20.32 85.32-17.32L85.32-17.32Q87.96-14.44 87.96-10L87.96-10Q87.96-5.56 85.32-2.68L85.32-2.68Q82.52 0.32 78.04 0.32L78.04 0.32Q73.56 0.32 70.76-2.68L70.76-2.68Q68.12-5.56 68.12-10L68.12-10Q68.12-14.44 70.76-17.32L70.76-17.32Q73.56-20.32 78.04-20.32ZM78.04-2.40L78.04-2.40Q81.28-2.40 83.16-4.64L83.16-4.64Q84.96-6.76 84.96-10L84.96-10Q84.96-13.24 83.16-15.36L83.16-15.36Q81.28-17.60 78.04-17.60L78.04-17.60Q74.80-17.60 72.92-15.36L72.92-15.36Q71.12-13.24 71.12-10L71.12-10Q71.12-6.76 72.92-4.64L72.92-4.64Q74.80-2.40 78.04-2.40Z M109.12-20L112.40-20L104.60 0L101.08 0L93.24-20L96.52-20L102.84-3.20L109.12-20Z M134.56 0L134.56-3.20Q132.16 0.32 127.40 0.32L127.40 0.32Q123.08 0.32 120.36-2.68L120.36-2.68Q117.72-5.64 117.72-10L117.72-10Q117.72-14.36 120.36-17.32L120.36-17.32Q123.08-20.32 127.60-20.32Q132.12-20.32 134.56-16.76L134.56-16.76L134.56-20L137.56-20L137.56 0L134.56 0ZM127.80-2.40L127.80-2.40Q131.04-2.40 132.92-4.64L132.92-4.64Q134.72-6.76 134.72-10L134.72-10Q134.72-13.24 132.92-15.36L132.92-15.36Q131.04-17.60 127.80-17.60L127.80-17.60Q124.60-17.60 122.60-15.36L122.60-15.36Q120.72-13.24 120.72-10L120.72-10Q120.72-6.76 122.60-4.64L122.60-4.64Q124.60-2.40 127.80-2.40Z M151.92 0L148.92 0L148.92-17.36L144.84-17.36L144.84-20L148.92-20L148.92-27.16L151.92-27.16L151.92-20L156.52-20L156.52-17.36L151.92-17.36L151.92 0Z M163.80 0L163.80-20L166.80-20L166.80 0L163.80 0ZM163.68-27.28L166.92-27.28L166.92-23.36L163.68-23.36L163.68-27.28Z M176-20L179-20L179-16.88Q180.08-18.32 181.64-19.32Q183.20-20.32 185.20-20.32Q187.20-20.32 188.64-19.76Q190.08-19.20 191.16-18.08L191.16-18.08Q193.64-15.64 193.64-11.64L193.64-11.64L193.64 0L190.64 0L190.64-11.56Q190.64-14.32 189.08-15.96Q187.52-17.60 185.04-17.60L185.04-17.60Q182.52-17.60 180.76-15.92L180.76-15.92Q179-14.20 179-11.52L179-11.52L179 0L176 0L176-20Z M218.24-16.80L218.24-16.80L218.24-20L221.24-20L221.24-0.60Q221.24 3.72 218.78 5.98Q216.32 8.24 212.16 8.24Q208.00 8.24 205.66 6.64Q203.32 5.04 202.48 2.40L202.48 2.40L205.80 2.40Q207.08 5.52 211.64 5.52L211.64 5.52Q215.12 5.52 216.68 3.92Q218.24 2.32 218.24-0.80L218.24-0.80L218.24-3.56Q215.80 0 211.08 0L211.08 0Q206.76 0 204.04-2.96L204.04-2.96Q201.40-5.84 201.40-10.16L201.40-10.16Q201.40-14.48 204.04-17.36L204.04-17.36Q206.76-20.32 211.30-20.32Q215.84-20.32 218.24-16.80ZM211.48-2.72L211.48-2.72Q213.12-2.72 214.40-3.30Q215.68-3.88 216.60-4.88L216.60-4.88Q218.40-6.96 218.40-10.16L218.40-10.16Q218.40-13.36 216.60-15.44L216.60-15.44Q214.64-17.60 211.48-17.60L211.48-17.60Q208.24-17.60 206.28-15.44L206.28-15.44Q204.40-13.32 204.40-10.16L204.40-10.16Q204.40-7 206.28-4.88L206.28-4.88Q208.24-2.72 211.48-2.72Z M259.52-22.24L252.36 0L248.96 0L240.72-26.48L243.88-26.48L250.68-4.24L257.80-26.48L261.24-26.48L268.36-4.24L275.16-26.48L278.32-26.48L270.08 0L266.68 0L259.52-22.24Z M292.88-2.40L292.88-2.40Q296.92-2.40 298.68-5.76L298.68-5.76L301.96-5.76Q300.92-3.04 298.66-1.36Q296.40 0.32 292.84 0.32L292.84 0.32Q288.32 0.32 285.48-2.68L285.48-2.68Q282.72-5.60 282.72-10L282.72-10Q282.72-14.44 285.36-17.32L285.36-17.32Q288.16-20.32 292.64-20.32L292.64-20.32Q297.12-20.32 299.92-17.32L299.92-17.32Q302.56-14.44 302.56-10L302.56-10L302.56-8.80L285.80-8.80Q286.12-6.04 288.00-4.24L288.00-4.24Q289.92-2.40 292.88-2.40ZM292.64-17.60L292.64-17.60Q289.88-17.60 288.00-15.88L288.00-15.88Q286.24-14.24 285.84-11.60L285.84-11.60L299.44-11.60Q299.04-14.24 297.28-15.88L297.28-15.88Q295.40-17.60 292.64-17.60Z M313.24-28L313.24-16.76Q315.68-20.32 320.40-20.32L320.40-20.32Q324.72-20.32 327.40-17.32L327.40-17.32Q330.08-14.36 330.08-10L330.08-10Q330.08-5.64 327.40-2.68L327.40-2.68Q324.72 0.32 320.18 0.32Q315.64 0.32 313.24-3.20L313.24-3.20L313.24 0L310.24 0L310.24-28L313.24-28ZM320.00-2.40L320.00-2.40Q323.20-2.40 325.20-4.64L325.20-4.64Q327.08-6.76 327.08-10L327.08-10Q327.08-13.24 325.20-15.36L325.20-15.36Q323.20-17.60 320.00-17.60L320.00-17.60Q316.76-17.60 314.88-15.36L314.88-15.36Q313.08-13.24 313.08-10L313.08-10Q313.08-6.76 314.88-4.64L314.88-4.64Q316.76-2.40 320.00-2.40Z M354.20-22.42Q353.44-21.76 353.18-20.96Q352.92-20.16 352.92-19.26Q352.92-18.36 353.70-17.60Q354.48-16.84 355.76-16.32Q357.04-15.80 358.68-15.40Q360.32-15 362.02-14.58Q363.72-14.16 365.36-13.62Q367.00-13.08 368.28-12.24L368.28-12.24Q371.12-10.44 371.12-7.32L371.12-7.32Q371.12-3.60 368.34-1.64Q365.56 0.32 360.64 0.32L360.64 0.32Q355.08 0.32 352.16-2L352.16-2Q349.56-4.08 349.20-7.92L349.20-7.92L352.32-7.92Q352.48-5.20 354.96-3.76L354.96-3.76Q357.12-2.52 360.68-2.52L360.68-2.52Q368.12-2.52 368.12-7.20L368.12-7.20Q368.12-8.80 366.78-9.72Q365.44-10.64 363.42-11.24Q361.40-11.84 359.06-12.36Q356.72-12.88 354.70-13.70Q352.68-14.52 351.34-15.86Q350.00-17.20 350.00-19.48L350.00-19.48Q350.00-22.72 352.48-24.76Q354.96-26.80 359.96-26.80L359.96-26.80Q365.00-26.80 367.76-24.48L367.76-24.48Q370.28-22.44 370.44-19.24L370.44-19.24L367.36-19.24Q366.96-22.52 363.12-23.60L363.12-23.60Q361.76-24 359.74-24Q357.72-24 356.34-23.54Q354.96-23.08 354.20-22.42Z M387.80-20.32L387.80-20.32Q392.28-20.32 395.08-17.32L395.08-17.32Q397.72-14.44 397.72-10L397.72-10Q397.72-5.56 395.08-2.68L395.08-2.68Q392.28 0.32 387.80 0.32L387.80 0.32Q383.32 0.32 380.52-2.68L380.52-2.68Q377.88-5.56 377.88-10L377.88-10Q377.88-14.44 380.52-17.32L380.52-17.32Q383.32-20.32 387.80-20.32ZM387.80-2.40L387.80-2.40Q391.04-2.40 392.92-4.64L392.92-4.64Q394.72-6.76 394.72-10L394.72-10Q394.72-13.24 392.92-15.36L392.92-15.36Q391.04-17.60 387.80-17.60L387.80-17.60Q384.56-17.60 382.68-15.36L382.68-15.36Q380.88-13.24 380.88-10L380.88-10Q380.88-6.76 382.68-4.64L382.68-4.64Q384.56-2.40 387.80-2.40Z M408.68-28L408.68 0L405.68 0L405.68-28L408.68-28Z M435.32 0L432.32 0L432.32-3.12Q431.24-1.68 429.68-0.68Q428.12 0.32 426.12 0.32Q424.12 0.32 422.68-0.24Q421.24-0.80 420.16-1.92L420.16-1.92Q417.68-4.36 417.68-8.36L417.68-8.36L417.68-20L420.68-20L420.68-8.44Q420.68-5.68 422.24-4.04Q423.80-2.40 426.28-2.40L426.28-2.40Q428.80-2.40 430.56-4.08L430.56-4.08Q432.32-5.80 432.32-8.48L432.32-8.48L432.32-20L435.32-20L435.32 0Z M449.68 0L446.68 0L446.68-17.36L442.60-17.36L442.60-20L446.68-20L446.68-27.16L449.68-27.16L449.68-20L454.28-20L454.28-17.36L449.68-17.36L449.68 0Z M461.56 0L461.56-20L464.56-20L464.56 0L461.56 0ZM461.44-27.28L464.68-27.28L464.68-23.36L461.44-23.36L461.44-27.28Z M482.44-20.32L482.44-20.32Q486.92-20.32 489.72-17.32L489.72-17.32Q492.36-14.44 492.36-10L492.36-10Q492.36-5.56 489.72-2.68L489.72-2.68Q486.92 0.32 482.44 0.32L482.44 0.32Q477.96 0.32 475.16-2.68L475.16-2.68Q472.52-5.56 472.52-10L472.52-10Q472.52-14.44 475.16-17.32L475.16-17.32Q477.96-20.32 482.44-20.32ZM482.44-2.40L482.44-2.40Q485.68-2.40 487.56-4.64L487.56-4.64Q489.36-6.76 489.36-10L489.36-10Q489.36-13.24 487.56-15.36L487.56-15.36Q485.68-17.60 482.44-17.60L482.44-17.60Q479.20-17.60 477.32-15.36L477.32-15.36Q475.52-13.24 475.52-10L475.52-10Q475.52-6.76 477.32-4.64L477.32-4.64Q479.20-2.40 482.44-2.40Z M500.32-20L503.32-20L503.32-16.88Q504.40-18.32 505.96-19.32Q507.52-20.32 509.52-20.32Q511.52-20.32 512.96-19.76Q514.40-19.20 515.48-18.08L515.48-18.08Q517.96-15.64 517.96-11.64L517.96-11.64L517.96 0L514.96 0L514.96-11.56Q514.96-14.32 513.40-15.96Q511.84-17.60 509.36-17.60L509.36-17.60Q506.84-17.60 505.08-15.92L505.08-15.92Q503.32-14.20 503.32-11.52L503.32-11.52L503.32 0L500.32 0L500.32-20Z M541.76-14.64L538.72-14.64Q538.32-17.76 533.70-17.76Q529.08-17.76 529.08-14.88L529.08-14.88Q529.08-13.68 530.06-13.06Q531.04-12.44 532.52-12.04Q534.00-11.64 535.74-11.30Q537.48-10.96 538.96-10.34Q540.44-9.72 541.42-8.64Q542.40-7.56 542.40-5.68L542.40-5.68Q542.40-2.76 540.20-1.22Q538.00 0.32 534.24 0.32L534.24 0.32Q530.24 0.32 527.88-1.68L527.88-1.68Q525.72-3.44 525.56-6.28L525.56-6.28L528.68-6.28Q528.96-3.52 531.80-2.56L531.80-2.56Q532.84-2.24 533.86-2.24Q534.88-2.24 535.76-2.36Q536.64-2.48 537.48-2.80L537.48-2.80Q539.40-3.56 539.40-5.40L539.40-5.40Q539.40-6.64 538.42-7.30Q537.44-7.96 535.96-8.38Q534.48-8.80 532.74-9.14Q531.00-9.48 529.52-10.08Q528.04-10.68 527.06-11.72Q526.08-12.76 526.08-14.60L526.08-14.60Q526.08-17.32 528.06-18.82Q530.04-20.32 533.92-20.32L533.92-20.32Q537.60-20.32 539.72-18.56L539.72-18.56Q541.48-17.08 541.76-14.64L541.76-14.64Z"/></g>
</svg>
</g><g opacity="1" transform="rotate(0 -13.3843 218.7756)">
<svg width="360.2122" height="24" x="-13.3843" y="218.7756" version="1.1" preserveAspectRatio="none" viewBox="0.7813 -28.3984 432.08979999999997 28.7891">
  <g transform="matrix(1 0 0 1 0 0)" class="companyName"><path id="id-D6z1nYkh15" d="M28.26-28.01L28.26-22.93L17.07-22.93L17.07 0L11.99 0L11.99-22.93L0.78-22.93L0.78-28.01L28.26-28.01Z M37.11-28.01L37.11 0L32.03 0L32.03-28.01L37.11-28.01Z M70.96-18.59L70.96-16.29Q70.96-14.55 70.53-13.18Q70.10-11.82 69.37-10.77Q68.63-9.73 67.68-8.98Q66.72-8.24 65.67-7.77Q64.63-7.30 63.56-7.09Q62.50-6.88 61.56-6.88L61.56-6.88L50.08-6.88L50.08-11.95L61.56-11.95Q62.54-12.03 63.33-12.35Q64.12-12.68 64.69-13.22Q65.25-13.77 65.57-14.54Q65.88-15.31 65.88-16.29L65.88-16.29L65.88-18.59Q65.78-19.55 65.47-20.35Q65.16-21.15 64.62-21.72Q64.08-22.29 63.32-22.61Q62.56-22.93 61.56-22.93L61.56-22.93L50.12-22.93Q49.10-22.93 48.57-22.40Q48.05-21.88 48.05-20.88L48.05-20.88L48.05 0L42.97 0L42.97-20.88Q42.97-22.83 43.68-24.20Q44.39-25.57 45.46-26.41Q46.52-27.25 47.77-27.63Q49.02-28.01 50.08-28.01L50.08-28.01L61.56-28.01Q63.28-28.01 64.65-27.57Q66.02-27.13 67.06-26.40Q68.11-25.66 68.84-24.71Q69.57-23.75 70.05-22.71Q70.53-21.66 70.74-20.60Q70.96-19.53 70.96-18.59L70.96-18.59Z M104.69-16.68L104.69-11.33Q104.69-8.77 103.81-6.62Q102.93-4.47 101.37-2.91Q99.80-1.35 97.67-0.48Q95.53 0.39 93.01 0.39L93.01 0.39L86.13 0.39Q83.61 0.39 81.46-0.48Q79.32-1.35 77.75-2.91Q76.19-4.47 75.30-6.62Q74.41-8.77 74.41-11.33L74.41-11.33L74.41-16.68Q74.41-19.22 75.30-21.38Q76.19-23.54 77.75-25.09Q79.32-26.64 81.46-27.52Q83.61-28.40 86.13-28.40L86.13-28.40L93.01-28.40Q95.53-28.40 97.67-27.52Q99.80-26.64 101.37-25.09Q102.93-23.54 103.81-21.38Q104.69-19.22 104.69-16.68L104.69-16.68ZM99.61-11.33L99.61-16.68Q99.61-18.18 99.13-19.40Q98.65-20.63 97.78-21.49Q96.91-22.36 95.69-22.84Q94.47-23.32 93.01-23.32L93.01-23.32L86.13-23.32Q84.65-23.32 83.43-22.84Q82.21-22.36 81.33-21.49Q80.45-20.63 79.97-19.40Q79.49-18.18 79.49-16.68L79.49-16.68L79.49-11.33Q79.49-9.82 79.97-8.60Q80.45-7.38 81.33-6.51Q82.21-5.64 83.43-5.17Q84.65-4.69 86.13-4.69L86.13-4.69L92.97-4.69Q94.45-4.69 95.67-5.17Q96.89-5.64 97.77-6.51Q98.65-7.38 99.13-8.60Q99.61-9.82 99.61-11.33L99.61-11.33Z M150.66-16.29L150.66-11.72Q150.66-9.16 149.78-7.01Q148.89-4.86 147.32-3.31Q145.76-1.76 143.61-0.88Q141.46 0 138.95 0L138.95 0L125.23 0Q124.69 0 124.22-0.20Q123.75-0.39 123.41-0.73Q123.07-1.07 122.87-1.54Q122.68-2.01 122.68-2.56L122.68-2.56L122.68-25.45Q122.68-25.98 122.87-26.45Q123.07-26.91 123.41-27.27Q123.75-27.62 124.22-27.81Q124.69-28.01 125.23-28.01L125.23-28.01L138.95-28.01Q141.46-28.01 143.61-27.13Q145.76-26.25 147.32-24.70Q148.89-23.14 149.78-20.99Q150.66-18.83 150.66-16.29L150.66-16.29ZM145.59-11.72L145.59-16.29Q145.59-17.77 145.11-19.00Q144.63-20.23 143.75-21.10Q142.87-21.97 141.65-22.45Q140.43-22.93 138.95-22.93L138.95-22.93L127.75-22.93L127.75-5.08L138.95-5.08Q140.43-5.08 141.65-5.56Q142.87-6.04 143.75-6.90Q144.63-7.77 145.11-8.99Q145.59-10.21 145.59-11.72L145.59-11.72Z M178.67-16.56L178.67-11.45L162.64-11.45L162.64-16.56L178.67-16.56ZM180.96-5.08L180.96 0L162.64 0Q161.58 0 160.33-0.37Q159.08-0.74 158.02-1.59Q156.95-2.44 156.24-3.80Q155.53-5.16 155.53-7.13L155.53-7.13L155.53-25.45Q155.53-25.98 155.72-26.45Q155.92-26.91 156.26-27.27Q156.60-27.62 157.07-27.81Q157.54-28.01 158.09-28.01L158.09-28.01L180.96-28.01L180.96-22.93L160.61-22.93L160.61-7.13Q160.61-6.13 161.13-5.61Q161.66-5.08 162.68-5.08L162.68-5.08L180.96-5.08Z M208.22-28.01L213.89-28.01L200.63-1.00Q200.31-0.37 199.70 0.01Q199.08 0.39 198.34 0.39L198.34 0.39Q197.62 0.39 197.00 0.01Q196.39-0.37 196.05-1.00L196.05-1.00L182.81-28.01L188.50-28.01L198.34-7.83L208.22-28.01Z M239.79-16.56L239.79-11.45L223.75-11.45L223.75-16.56L239.79-16.56ZM242.07-5.08L242.07 0L223.75 0Q222.70 0 221.45-0.37Q220.20-0.74 219.13-1.59Q218.07-2.44 217.35-3.80Q216.64-5.16 216.64-7.13L216.64-7.13L216.64-25.45Q216.64-25.98 216.84-26.45Q217.03-26.91 217.37-27.27Q217.71-27.62 218.18-27.81Q218.65-28.01 219.20-28.01L219.20-28.01L242.07-28.01L242.07-22.93L221.72-22.93L221.72-7.13Q221.72-6.13 222.25-5.61Q222.77-5.08 223.79-5.08L223.79-5.08L242.07-5.08Z M272.70-5.08L272.70 0L249.53 0Q248.98 0 248.52-0.20Q248.05-0.39 247.71-0.73Q247.36-1.07 247.17-1.54Q246.97-2.01 246.97-2.56L246.97-2.56L246.97-28.01L252.05-28.01L252.05-5.08L272.70-5.08Z M305.39-16.68L305.39-11.33Q305.39-8.77 304.51-6.62Q303.63-4.47 302.07-2.91Q300.51-1.35 298.37-0.48Q296.23 0.39 293.71 0.39L293.71 0.39L286.84 0.39Q284.32 0.39 282.17-0.48Q280.02-1.35 278.46-2.91Q276.89-4.47 276.01-6.62Q275.12-8.77 275.12-11.33L275.12-11.33L275.12-16.68Q275.12-19.22 276.01-21.38Q276.89-23.54 278.46-25.09Q280.02-26.64 282.17-27.52Q284.32-28.40 286.84-28.40L286.84-28.40L293.71-28.40Q296.23-28.40 298.37-27.52Q300.51-26.64 302.07-25.09Q303.63-23.54 304.51-21.38Q305.39-19.22 305.39-16.68L305.39-16.68ZM300.31-11.33L300.31-16.68Q300.31-18.18 299.83-19.40Q299.36-20.63 298.49-21.49Q297.62-22.36 296.40-22.84Q295.18-23.32 293.71-23.32L293.71-23.32L286.84-23.32Q285.35-23.32 284.13-22.84Q282.91-22.36 282.03-21.49Q281.15-20.63 280.67-19.40Q280.20-18.18 280.20-16.68L280.20-16.68L280.20-11.33Q280.20-9.82 280.67-8.60Q281.15-7.38 282.03-6.51Q282.91-5.64 284.13-5.17Q285.35-4.69 286.84-4.69L286.84-4.69L293.67-4.69Q295.16-4.69 296.38-5.17Q297.60-5.64 298.48-6.51Q299.36-7.38 299.83-8.60Q300.31-9.82 300.31-11.33L300.31-11.33Z M338.32-18.59L338.32-16.29Q338.32-14.55 337.89-13.18Q337.46-11.82 336.73-10.77Q336.00-9.73 335.04-8.98Q334.08-8.24 333.04-7.77Q331.99-7.30 330.93-7.09Q329.86-6.88 328.93-6.88L328.93-6.88L317.44-6.88L317.44-11.95L328.93-11.95Q329.90-12.03 330.69-12.35Q331.48-12.68 332.05-13.22Q332.62-13.77 332.93-14.54Q333.24-15.31 333.24-16.29L333.24-16.29L333.24-18.59Q333.14-19.55 332.83-20.35Q332.52-21.15 331.98-21.72Q331.45-22.29 330.68-22.61Q329.92-22.93 328.93-22.93L328.93-22.93L317.48-22.93Q316.46-22.93 315.94-22.40Q315.41-21.88 315.41-20.88L315.41-20.88L315.41 0L310.33 0L310.33-20.88Q310.33-22.83 311.04-24.20Q311.76-25.57 312.82-26.41Q313.89-27.25 315.14-27.63Q316.39-28.01 317.44-28.01L317.44-28.01L328.93-28.01Q330.64-28.01 332.01-27.57Q333.38-27.13 334.42-26.40Q335.47-25.66 336.20-24.71Q336.93-23.75 337.41-22.71Q337.89-21.66 338.11-20.60Q338.32-19.53 338.32-18.59L338.32-18.59Z M365.68-16.56L365.68-11.45L349.65-11.45L349.65-16.56L365.68-16.56ZM367.97-5.08L367.97 0L349.65 0Q348.59 0 347.34-0.37Q346.09-0.74 345.03-1.59Q343.96-2.44 343.25-3.80Q342.54-5.16 342.54-7.13L342.54-7.13L342.54-25.45Q342.54-25.98 342.73-26.45Q342.93-26.91 343.27-27.27Q343.61-27.62 344.08-27.81Q344.55-28.01 345.10-28.01L345.10-28.01L367.97-28.01L367.97-22.93L347.62-22.93L347.62-7.13Q347.62-6.13 348.14-5.61Q348.67-5.08 349.69-5.08L349.69-5.08L367.97-5.08Z M400.86-21.84L400.86-18.59Q400.86-16.86 400.43-15.49Q400-14.12 399.27-13.08Q398.54-12.03 397.58-11.29Q396.62-10.55 395.58-10.07Q394.53-9.59 393.47-9.38Q392.40-9.16 391.46-9.16L391.46-9.16L402.07 0L394.22 0L383.63-9.16L379.98-9.16L379.98-14.24L391.46-14.24Q392.42-14.32 393.21-14.64Q394.00-14.96 394.58-15.51Q395.16-16.05 395.47-16.83Q395.78-17.60 395.78-18.59L395.78-18.59L395.78-21.80Q395.78-22.23 395.67-22.45Q395.57-22.68 395.40-22.78Q395.23-22.89 395.05-22.91Q394.86-22.93 394.71-22.93L394.71-22.93L377.95-22.93L377.95 0L372.87 0L372.87-25.45Q372.87-25.98 373.07-26.45Q373.26-26.91 373.60-27.27Q373.95-27.62 374.41-27.81Q374.88-28.01 375.43-28.01L375.43-28.01L394.71-28.01Q396.41-28.01 397.58-27.39Q398.75-26.78 399.48-25.85Q400.21-24.92 400.54-23.85Q400.86-22.77 400.86-21.84L400.86-21.84Z M432.87-8.24L432.87-8.24Q432.87-6.74 432.49-5.54Q432.11-4.34 431.48-3.42Q430.86-2.50 430.02-1.86Q429.18-1.21 428.28-0.80Q427.38-0.39 426.46-0.20Q425.53 0 424.71 0L424.71 0L405.12 0L405.12-5.08L424.71-5.08Q426.17-5.08 426.98-5.94Q427.79-6.80 427.79-8.24L427.79-8.24Q427.79-8.95 427.58-9.53Q427.36-10.12 426.96-10.55Q426.56-10.98 425.99-11.21Q425.41-11.45 424.71-11.45L424.71-11.45L413.03-11.45Q411.80-11.45 410.37-11.88Q408.95-12.32 407.72-13.30Q406.50-14.28 405.69-15.86Q404.88-17.44 404.88-19.73L404.88-19.73Q404.88-22.01 405.69-23.58Q406.50-25.16 407.72-26.14Q408.95-27.13 410.37-27.57Q411.80-28.01 413.03-28.01L413.03-28.01L430.31-28.01L430.31-22.93L413.03-22.93Q411.58-22.93 410.77-22.05Q409.96-21.17 409.96-19.73L409.96-19.73Q409.96-18.26 410.77-17.41Q411.58-16.56 413.03-16.56L413.03-16.56L424.71-16.56L424.75-16.56Q425.57-16.54 426.48-16.34Q427.40-16.13 428.31-15.70Q429.22-15.27 430.04-14.62Q430.86-13.96 431.49-13.05Q432.13-12.13 432.50-10.94Q432.87-9.75 432.87-8.24Z"/></g>
</svg>
</g><g opacity="1" transform="rotate(0 76.6687 8.6695)">
<svg width="180.1062" height="180.1061" x="76.6687" y="8.6695" version="1.1" preserveAspectRatio="none" viewBox="26.53700065612793 28.740997314453125 145.00001525878906 145">
  <g transform="matrix(1 0 0 1 0 0)" class="icon1"><g><path d="M26.537 28.741v145h41.278V154.16a31.222 31.222 0 0 1 31.222-31.222 31.222 31.222 0 0 1 31.223 31.222v19.581h41.277v-145zm72.5 88.905a21.168 21.168 0 1 1 21.168-21.168 21.168 21.168 0 0 1-21.168 21.168z"></path></g></g>
</svg>
</g></svg></svg>